<svg xmlns="http://www.w3.org/2000/svg" viewBox="0 0 500 500"><g id="freepik--background-complete--inject-61"><rect y="382.4" width="500" height="0.25" style="fill:#ebebeb"></rect><rect x="416.78" y="398.49" width="33.12" height="0.25" style="fill:#ebebeb"></rect><rect x="322.53" y="401.21" width="8.69" height="0.25" style="fill:#ebebeb"></rect><rect x="396.59" y="389.21" width="19.19" height="0.25" style="fill:#ebebeb"></rect><rect x="52.46" y="390.89" width="43.19" height="0.25" style="fill:#ebebeb"></rect><rect x="104.56" y="390.89" width="6.33" height="0.25" style="fill:#ebebeb"></rect><rect x="131.47" y="395.11" width="93.68" height="0.25" style="fill:#ebebeb"></rect><path d="M237,337.8H43.91a5.71,5.71,0,0,1-5.7-5.71V60.66A5.71,5.71,0,0,1,43.91,55H237a5.71,5.71,0,0,1,5.71,5.71V332.09A5.71,5.71,0,0,1,237,337.8ZM43.91,55.2a5.46,5.46,0,0,0-5.45,5.46V332.09a5.46,5.46,0,0,0,5.45,5.46H237a5.47,5.47,0,0,0,5.46-5.46V60.66A5.47,5.47,0,0,0,237,55.2Z" style="fill:#ebebeb"></path><path d="M453.31,337.8H260.21a5.72,5.72,0,0,1-5.71-5.71V60.66A5.72,5.72,0,0,1,260.21,55h193.1A5.71,5.71,0,0,1,459,60.66V332.09A5.71,5.71,0,0,1,453.31,337.8ZM260.21,55.2a5.47,5.47,0,0,0-5.46,5.46V332.09a5.47,5.47,0,0,0,5.46,5.46h193.1a5.47,5.47,0,0,0,5.46-5.46V60.66a5.47,5.47,0,0,0-5.46-5.46Z" style="fill:#ebebeb"></path><rect x="299.16" y="118.16" width="118" height="150.49" transform="translate(716.33 386.81) rotate(180)" style="fill:#e0e0e0"></rect><rect x="295.4" y="118.16" width="122.39" height="150.49" transform="translate(713.18 386.81) rotate(180)" style="fill:#f0f0f0"></rect><rect x="300.57" y="122.32" width="112.23" height="140.33" transform="translate(713.38 384.98) rotate(180)" style="fill:#fff"></rect><rect x="300.57" y="122.32" width="3.25" height="140.33" transform="translate(604.39 384.98) rotate(180)" style="fill:#e0e0e0"></rect><rect x="356.66" y="166.2" width="3.25" height="109.62" transform="translate(137.27 579.29) rotate(-90)" style="fill:#e0e0e0"></rect><rect x="300.57" y="213.94" width="113.97" height="5.45" transform="translate(715.12 433.32) rotate(180)" style="fill:#f0f0f0"></rect><rect x="69.46" y="191.51" width="151.48" height="191.82" style="fill:#f0f0f0"></rect><rect x="74.81" y="198.5" width="140.77" height="41.02" style="fill:#e0e0e0"></rect><rect x="74.81" y="205.14" width="8" height="34.38" style="fill:#ebebeb"></rect><rect x="113.48" y="205.14" width="8" height="34.38" style="fill:#ebebeb"></rect><rect x="160.36" y="204.71" width="8" height="34.38" transform="translate(-35.3 31.14) rotate(-9.78)" style="fill:#ebebeb"></rect><rect x="84.72" y="209.67" width="8" height="29.85" style="fill:#ebebeb"></rect><rect x="103.1" y="209.67" width="8" height="29.85" style="fill:#ebebeb"></rect><rect x="149.5" y="209.67" width="8" height="29.85" style="fill:#ebebeb"></rect><rect x="127.32" y="209.16" width="8" height="29.85" transform="translate(-45.48 33.82) rotate(-12.53)" style="fill:#ebebeb"></rect><rect x="95.64" y="203.43" width="4" height="36.08" style="fill:#ebebeb"></rect><rect x="143.2" y="203.43" width="4" height="36.08" style="fill:#ebebeb"></rect><rect x="74.81" y="246.01" width="140.77" height="41.02" transform="translate(290.4 533.05) rotate(180)" style="fill:#e0e0e0"></rect><rect x="207.59" y="252.66" width="8" height="34.38" transform="translate(423.18 539.69) rotate(180)" style="fill:#ebebeb"></rect><rect x="168.92" y="252.66" width="8" height="34.38" transform="translate(345.85 539.69) rotate(180)" style="fill:#ebebeb"></rect><rect x="122.05" y="252.23" width="8" height="34.38" transform="translate(204.51 556.32) rotate(-170.22)" style="fill:#ebebeb"></rect><rect x="197.68" y="257.19" width="8" height="29.85" transform="translate(403.36 544.22) rotate(180)" style="fill:#ebebeb"></rect><rect x="179.3" y="257.19" width="8" height="29.85" transform="translate(366.6 544.22) rotate(180)" style="fill:#ebebeb"></rect><rect x="132.91" y="257.19" width="8" height="29.85" transform="translate(273.81 544.22) rotate(180)" style="fill:#ebebeb"></rect><rect x="155.09" y="256.67" width="8" height="29.85" transform="translate(255.47 571.24) rotate(-167.47)" style="fill:#ebebeb"></rect><rect x="190.77" y="250.95" width="4" height="36.08" transform="translate(385.54 537.98) rotate(180)" style="fill:#ebebeb"></rect><rect x="143.2" y="250.95" width="4" height="36.08" transform="translate(290.4 537.98) rotate(180)" style="fill:#ebebeb"></rect><rect x="74.81" y="252.66" width="8" height="34.38" style="fill:#ebebeb"></rect><rect x="84.72" y="257.19" width="8" height="29.85" style="fill:#ebebeb"></rect><rect x="103.1" y="257.19" width="8" height="29.85" style="fill:#ebebeb"></rect><rect x="95.64" y="250.95" width="4" height="36.08" style="fill:#ebebeb"></rect><rect x="74.81" y="293.53" width="140.77" height="41.02" style="fill:#e0e0e0"></rect><rect x="155.61" y="300.17" width="8" height="34.38" style="fill:#ebebeb"></rect><rect x="202.49" y="299.74" width="8" height="34.38" transform="translate(-50.83 39.67) rotate(-9.78)" style="fill:#ebebeb"></rect><rect x="126.86" y="304.7" width="8" height="29.85" style="fill:#ebebeb"></rect><rect x="145.24" y="304.7" width="8" height="29.85" style="fill:#ebebeb"></rect><rect x="191.63" y="304.7" width="8" height="29.85" style="fill:#ebebeb"></rect><rect x="169.45" y="304.19" width="8" height="29.85" transform="translate(-65.09 45.22) rotate(-12.53)" style="fill:#ebebeb"></rect><rect x="137.77" y="298.46" width="4" height="36.09" style="fill:#ebebeb"></rect><rect x="185.33" y="298.46" width="4" height="36.09" style="fill:#ebebeb"></rect><rect x="110.49" y="299.74" width="8" height="34.38" transform="translate(-52.16 24.05) rotate(-9.78)" style="fill:#ebebeb"></rect><rect x="99.63" y="304.7" width="8" height="29.85" style="fill:#ebebeb"></rect><rect x="77.45" y="304.19" width="8" height="29.85" transform="translate(-67.28 25.26) rotate(-12.53)" style="fill:#ebebeb"></rect><rect x="93.33" y="298.46" width="4" height="36.09" style="fill:#ebebeb"></rect><path d="M92.72,191.51v-2.85h4.61a54,54,0,0,1-1.69-27s-.07,11.8,4.49,11.89c7,.13,7.5-11.89,7.5-11.89s1.68,17.19-4.58,27h4.78v2.85Z" style="fill:#e0e0e0"></path><path d="M105.68,169.51a4,4,0,1,1-4-4A4,4,0,0,1,105.68,169.51Z" style="fill:#e0e0e0"></path><path d="M123.65,191.51v-1.66l4.88-2.27-2.44-2.38,6.06-21.41v13.37s-.83,0-.83,1.92,2.76,1.48,2.76-.11-.91-1.81-.91-1.81V163.22l5.55,21.19-2.49,3.17,5,2.27v1.66Z" style="fill:#e0e0e0"></path><polygon points="153.5 191.51 153.5 190.19 157.99 189.17 157.99 169.51 161.84 164.13 165.13 168.34 165.13 177.37 166.83 175 169.21 174.1 170.91 177.82 167.28 189.17 170.91 190.19 170.91 191.51 153.5 191.51" style="fill:#e0e0e0"></polygon><polygon points="183.3 192.11 188.81 164.13 205.68 164.13 201.68 180 207.59 191.51 183.3 192.11" style="fill:#e0e0e0"></polygon><path d="M406.12,351c.15-1,3.65-25.17-3.36-33.51a7.61,7.61,0,0,0-5.83-2.87c-14.15-.33-16.08,11-16.1,11.15l1.67.26c.06-.41,1.74-10,14.39-9.72a5.9,5.9,0,0,1,4.57,2.26c6.53,7.77,3,31.93,3,32.18Z" style="fill:#ebebeb"></path><path d="M407,349.88l1.69-.06c0-.22-.56-22.25,10.29-26.8,10.64-4.45,15.42,4.71,15.62,5.1l1.51-.76c-.05-.11-5.67-11-17.78-5.89C406.38,326.46,406.94,348.92,407,349.88Z" style="fill:#ebebeb"></path><path d="M406.92,351.61c0-.35.1-35.19,6.9-45.38,6.52-9.79,17-5.18,17.48-5l.7-1.54c-.12,0-12.26-5.41-19.59,5.58-7.07,10.61-7.18,44.86-7.18,46.32Z" style="fill:#ebebeb"></path><path d="M394.91,315.44s6.18,2.28,4.34,7.65-21.38,14.23-21.38,14.23-8.18-7.5-.66-19.7S394.74,311.59,394.91,315.44Z" style="fill:#e0e0e0"></path><path d="M414.12,304.39s-4.38-.47-4-3.14,17.05-9.55,26.91,1.57c0,0-6.31,10.84-15.43,11S414.12,304.39,414.12,304.39Z" style="fill:#e0e0e0"></path><path d="M418.63,322.24s-3-2.44.24-3.63,19.3-.86,19.46,15c0,0-18.67,3.11-21-2.94S418.63,322.24,418.63,322.24Z" style="fill:#e0e0e0"></path><polygon points="391.59 383.33 420.57 383.33 423.69 351.61 388.46 351.61 391.59 383.33" style="fill:#ebebeb"></polygon><rect x="386.92" y="348.11" width="38.32" height="7" transform="translate(812.16 703.21) rotate(180)" style="fill:#e0e0e0"></rect></g><g id="freepik--Shadow--inject-61"><ellipse id="freepik--path--inject-61" cx="250" cy="416.24" rx="193.89" ry="11.32" style="fill:#f5f5f5"></ellipse></g><g id="freepik--Device--inject-61"><rect x="92.68" y="142.94" width="152.52" height="274.33" rx="10.4" style="fill:#263238"></rect><path d="M240.1,152.13V407.59a3.73,3.73,0,0,1-3.79,3.73h-135a3.34,3.34,0,0,1-3.38-3.43V151.82a3,3,0,0,1,2.9-3.13h33.76a2.37,2.37,0,0,1,2.17,1.52l1.4,3.44a2.37,2.37,0,0,0,2.17,1.5h57.48a2.36,2.36,0,0,0,2.18-1.48l1.4-3.46a2.38,2.38,0,0,1,2.17-1.52h33.28A3.41,3.41,0,0,1,240.1,152.13Z" style="fill:#407BFF"></path><rect x="97.88" y="164.65" width="142.23" height="229.7" style="fill:#fff;opacity:0.30000000000000004;isolation:isolate"></rect><path d="M167.72,149a2,2,0,1,1-1.95-2A2,2,0,0,1,167.72,149Z" style="fill:#fff;opacity:0.6000000000000001;isolation:isolate"></path><path d="M171.67,149a1.25,1.25,0,1,1-1.25-1.25A1.25,1.25,0,0,1,171.67,149Z" style="fill:#fff;opacity:0.6000000000000001;isolation:isolate"></path><rect x="103.05" y="174.42" width="130.34" height="78" style="opacity:0.6000000000000001;isolation:isolate"></rect><rect x="103.05" y="250.33" width="130.34" height="2.09" style="opacity:0.5;isolation:isolate"></rect><rect x="103.04" y="250.33" width="4.75" height="2.09" style="fill:#fff;opacity:0.6000000000000001;isolation:isolate"></rect><rect x="198.2" y="179.92" width="6.31" height="6.31" rx="0.84" style="opacity:0.30000000000000004;isolation:isolate"></rect><rect x="200.48" y="178.24" width="6.31" height="6.31" rx="0.84" style="fill:#407BFF"></rect><path d="M110.24,251.44a2.48,2.48,0,1,1-2.48-2.48A2.48,2.48,0,0,1,110.24,251.44Z" style="fill:#fff"></path><path d="M210.55,185.67a6.82,6.82,0,0,1,4.79-5.59V178.8l2.72,2-2.48,2.2v-1.28S211.5,182.71,210.55,185.67Z" style="fill:#407BFF"></path><path d="M226.37,179.36a.84.84,0,1,1-.84-.84A.85.85,0,0,1,226.37,179.36Z" style="fill:#407BFF"></path><circle cx="225.53" cy="182.24" r="0.84" style="fill:#407BFF"></circle><circle cx="225.53" cy="185.11" r="0.84" style="fill:#407BFF"></circle><path d="M167.37,269.34H105a2,2,0,0,1-2-2h0a2,2,0,0,1,2-1.95h62.37a2,2,0,0,1,2,1.95h0A2,2,0,0,1,167.37,269.34Z" style="fill:#fff;opacity:0.6000000000000001;isolation:isolate"></path><path d="M186.77,261.71H105a2,2,0,0,1-2-2h0a2,2,0,0,1,2-2h81.77a2,2,0,0,1,2,2h0A2,2,0,0,1,186.77,261.71Z" style="fill:#fff;opacity:0.6000000000000001;isolation:isolate"></path><polygon points="223.34 257.79 227.41 261.86 231.48 257.79 223.34 257.79" style="fill:#fff;opacity:0.4;isolation:isolate"></polygon><rect x="103.05" y="278.54" width="130.34" height="48.4" style="fill:#fff;opacity:0.4;isolation:isolate"></rect><path d="M199.64,286.26H175.47a1.77,1.77,0,0,1-1.77-1.77h0a1.77,1.77,0,0,1,1.77-1.77h24.17a1.77,1.77,0,0,1,1.77,1.77h0A1.77,1.77,0,0,1,199.64,286.26Z" style="fill:#fff;opacity:0.5;isolation:isolate"></path><path d="M222.26,293.53H175.47a1.77,1.77,0,0,1-1.77-1.77h0a1.77,1.77,0,0,1,1.77-1.77h46.79a1.77,1.77,0,0,1,1.77,1.77h0A1.77,1.77,0,0,1,222.26,293.53Z" style="fill:#fff;opacity:0.5;isolation:isolate"></path><rect x="107.86" y="282.72" width="58.5" height="40.04" style="opacity:0.6000000000000001;isolation:isolate"></rect><rect x="103.05" y="332.68" width="130.34" height="48.4" style="fill:#fff;opacity:0.4;isolation:isolate"></rect><path d="M199.64,340.4H175.47a1.77,1.77,0,0,1-1.77-1.77h0a1.77,1.77,0,0,1,1.77-1.77h24.17a1.77,1.77,0,0,1,1.77,1.77h0A1.77,1.77,0,0,1,199.64,340.4Z" style="fill:#fff;opacity:0.5;isolation:isolate"></path><path d="M222.26,347.67H175.47a1.77,1.77,0,0,1-1.77-1.77h0a1.77,1.77,0,0,1,1.77-1.77h46.79A1.77,1.77,0,0,1,224,345.9h0A1.77,1.77,0,0,1,222.26,347.67Z" style="fill:#fff;opacity:0.5;isolation:isolate"></path><rect x="107.86" y="336.86" width="58.5" height="40.04" style="opacity:0.6000000000000001;isolation:isolate"></rect><rect x="113.92" y="156.64" width="1.76" height="2.34" transform="translate(229.59 315.62) rotate(180)" style="fill:#fff;opacity:0.6000000000000001;isolation:isolate"></rect><rect x="111.05" y="155.86" width="1.76" height="3.12" transform="translate(223.86 314.84) rotate(180)" style="fill:#fff;opacity:0.6000000000000001;isolation:isolate"></rect><rect x="108.19" y="155.08" width="1.76" height="3.9" transform="translate(218.14 314.06) rotate(180)" style="fill:#fff;opacity:0.6000000000000001;isolation:isolate"></rect><rect x="105.33" y="154.3" width="1.76" height="4.69" transform="translate(212.41 313.28) rotate(180)" style="fill:#fff;opacity:0.6000000000000001;isolation:isolate"></rect><rect x="223.33" y="155.79" width="1.04" height="2.34" style="fill:#fff;opacity:0.6000000000000001;isolation:isolate"></rect><rect x="225.09" y="154.93" width="8.3" height="4.05" transform="translate(458.47 313.91) rotate(180)" style="fill:#fff;opacity:0.6000000000000001;isolation:isolate"></rect><path d="M141.58,220.85a5.62,5.62,0,0,1,5.62-5.61,5.36,5.36,0,0,1,1.61.24,12.36,12.36,0,0,1-.13-1.73,11.89,11.89,0,0,1,11.89-11.88,12.14,12.14,0,0,1,2.19.2A10.39,10.39,0,0,1,182,207.32h.17a9.58,9.58,0,1,1,0,19.16H147A5.62,5.62,0,0,1,141.58,220.85Z" style="fill:#263238"></path><polygon points="129.16 294.53 129.16 310.59 144.62 302.56 129.16 294.53" style="fill:#fff"></polygon><polygon points="129.16 348.2 129.16 364.26 144.62 356.23 129.16 348.2" style="fill:#fff"></polygon><path d="M166.68,204.21a9.56,9.56,0,1,0,9.56,9.56A9.56,9.56,0,0,0,166.68,204.21Zm0,17.72a8.16,8.16,0,1,1,8.16-8.16A8.16,8.16,0,0,1,166.68,221.93Z" style="fill:#fff;opacity:0.2;isolation:isolate"></path><path d="M160,207a9.55,9.55,0,1,0,7.48-2.74.7.7,0,0,0-.76.7h0a.7.7,0,0,0,.63.7A8.17,8.17,0,1,1,161,208a.69.69,0,0,0,0-.94h0A.69.69,0,0,0,160,207Z" style="fill:#fff;opacity:0.2;isolation:isolate"></path><path d="M164.34,214.58c0,.64-.55,1-1.42,1s-1.4-.4-1.4-1a.91.91,0,0,1,.7-.9.81.81,0,0,1-.57-.8c0-.59.5-1,1.27-1s1.29.37,1.29,1a.82.82,0,0,1-.58.8A.93.93,0,0,1,164.34,214.58Zm-.39,0c0-.44-.38-.72-1-.72s-1,.28-1,.72.38.74,1,.74S164,215,164,214.57Zm-1-1c.57,0,.91-.26.91-.65s-.36-.66-.91-.66-.9.25-.9.65S162.36,213.55,162.92,213.55Z" style="fill:#fff"></path><path d="M167.48,213.74c0,1.24-.68,1.88-1.66,1.88a1.7,1.7,0,0,1-.87-.2l.16-.3a1.2,1.2,0,0,0,.7.17c.79,0,1.29-.5,1.29-1.49a1.57,1.57,0,0,0,0-.29,1.15,1.15,0,0,1-1.11.62,1.1,1.1,0,0,1-1.22-1.09,1.13,1.13,0,0,1,1.24-1.12C167,211.92,167.48,212.59,167.48,213.74ZM167,213c0-.4-.34-.78-1-.78a.79.79,0,0,0-.88.79c0,.48.35.78.91.78A.84.84,0,0,0,167,213Z" style="fill:#fff"></path><path d="M168,212.91c0-.59.33-1,.82-1s.82.39.82,1-.34,1-.82,1S168,213.51,168,212.91Zm1.38,0c0-.47-.22-.75-.56-.75s-.56.29-.56.75.22.76.56.76S169.35,213.39,169.35,212.91Zm1.64-1h.31l-2.49,3.64h-.3Zm-.79,2.68c0-.59.33-1,.82-1s.82.4.82,1-.33,1-.82,1S170.2,215.22,170.2,214.63Zm1.38,0c0-.47-.22-.75-.56-.75s-.56.28-.56.75.22.75.56.75S171.58,215.1,171.58,214.63Z" style="fill:#fff"></path></g><g id="freepik--Clouds--inject-61"><rect x="305.42" y="106.78" width="7.32" height="4.18" style="fill:#407BFF"></rect><rect x="293.18" y="106.78" width="7.32" height="4.18" style="fill:#407BFF"></rect><rect x="280.93" y="106.78" width="7.32" height="4.18" style="fill:#407BFF"></rect><rect x="268.68" y="106.78" width="7.32" height="4.18" style="fill:#407BFF"></rect><rect x="256.44" y="106.78" width="7.32" height="4.18" style="fill:#407BFF"></rect><rect x="244.19" y="106.78" width="7.32" height="4.18" style="fill:#407BFF"></rect><rect x="231.95" y="106.78" width="7.32" height="4.18" style="fill:#407BFF"></rect><rect x="219.7" y="106.78" width="7.32" height="4.18" style="fill:#407BFF"></rect><rect x="207.45" y="106.78" width="7.32" height="4.18" style="fill:#407BFF"></rect><rect x="195.21" y="106.78" width="7.32" height="4.18" style="fill:#407BFF"></rect><path d="M138,113.92a6.57,6.57,0,0,1,8.47-6.3,15.16,15.16,0,0,1-.14-2,13.94,13.94,0,0,1,13.94-13.94,13.57,13.57,0,0,1,2.57.24,12.19,12.19,0,0,1,22.61,6.16h.2a11.24,11.24,0,0,1,0,22.47H144.44A6.58,6.58,0,0,1,138,113.92Z" style="fill:#407BFF"></path><path d="M138,113.92a6.57,6.57,0,0,1,8.47-6.3,15.16,15.16,0,0,1-.14-2,13.94,13.94,0,0,1,13.94-13.94,13.57,13.57,0,0,1,2.57.24,12.19,12.19,0,0,1,22.61,6.16h.2a11.24,11.24,0,0,1,0,22.47H144.44A6.58,6.58,0,0,1,138,113.92Z" style="fill:#fff;opacity:0.6000000000000001;isolation:isolate"></path><polygon points="172.89 123.84 172.89 105.6 164.52 105.6 164.52 123.84 157.71 123.84 168.7 137.65 179.7 123.84 172.89 123.84" style="fill:#407BFF"></polygon><path d="M296.27,113.92a6.57,6.57,0,0,1,8.47-6.3,15.16,15.16,0,0,1-.15-2,14,14,0,0,1,14-13.94,13.57,13.57,0,0,1,2.57.24,12.19,12.19,0,0,1,22.6,6.16h.21a11.24,11.24,0,0,1,0,22.47H302.67A6.58,6.58,0,0,1,296.27,113.92Z" style="fill:#407BFF"></path><path d="M296.27,113.92a6.57,6.57,0,0,1,8.47-6.3,15.16,15.16,0,0,1-.15-2,14,14,0,0,1,14-13.94,13.57,13.57,0,0,1,2.57.24,12.19,12.19,0,0,1,22.6,6.16h.21a11.24,11.24,0,0,1,0,22.47H302.67A6.58,6.58,0,0,1,296.27,113.92Z" style="fill:#fff;opacity:0.6000000000000001;isolation:isolate"></path><polygon points="322.75 114.06 322.75 192.3 331.12 192.3 331.12 114.06 337.93 114.06 326.93 100.25 315.93 114.06 322.75 114.06" style="fill:#407BFF"></polygon><path d="M309,181.91v24.57h35.89V181.91Zm2.7,22.92h-1.88V203h1.88Zm0-3.88h-1.88v-1.88h1.88Zm0-3.88h-1.88V195.2h1.88Zm0-3.88h-1.88v-1.87h1.88Zm0-3.88h-1.88v-1.87h1.88Zm0-3.88h-1.88v-1.87h1.88Zm32.36,19.4h-1.87V203h1.87Zm0-3.88h-1.87v-1.88h1.87Zm0-3.88h-1.87V195.2h1.87Zm0-3.88h-1.87v-1.87h1.87Zm0-3.88h-1.87v-1.87h1.87Zm0-3.88h-1.87v-1.87h1.87Z" style="fill:#263238;isolation:isolate"></path><polygon points="322.19 189.27 322.19 199.12 331.68 194.19 322.19 189.27" style="fill:#fff"></polygon></g><g id="freepik--Character--inject-61"><path d="M302.13,335.76H409.4a0,0,0,0,1,0,0v12.34a4.2,4.2,0,0,1-4.2,4.2H306.34a4.2,4.2,0,0,1-4.2-4.2V335.76A0,0,0,0,1,302.13,335.76Z" transform="translate(711.53 688.07) rotate(180)" style="fill:#407BFF"></path><path d="M302.13,335.76H409.4a0,0,0,0,1,0,0v12.34a4.2,4.2,0,0,1-4.2,4.2H306.34a4.2,4.2,0,0,1-4.2-4.2V335.76A0,0,0,0,1,302.13,335.76Z" transform="translate(711.53 688.07) rotate(180)" style="fill:#fff;opacity:0.6000000000000001"></path><path d="M370.53,335.76H409.4a0,0,0,0,1,0,0v12.34a4.2,4.2,0,0,1-4.2,4.2H374.74a4.2,4.2,0,0,1-4.2-4.2V335.76A0,0,0,0,1,370.53,335.76Z" transform="translate(779.93 688.07) rotate(180)" style="fill:#fff;opacity:0.6000000000000001"></path><polygon points="335.47 417.27 338.66 417.27 340.79 351.4 335.47 351.4 335.47 417.27" style="fill:#2e353a"></polygon><polygon points="406.41 417.27 409.6 417.27 409.6 351.4 404.28 351.4 406.41 417.27" style="fill:#2e353a"></polygon><polygon points="374.08 417.27 377.27 417.27 377.27 351.4 371.95 351.4 374.08 417.27" style="fill:#2e353a"></polygon><polygon points="303.14 417.27 306.33 417.27 308.46 351.4 303.14 351.4 303.14 417.27" style="fill:#2e353a"></polygon><rect x="298.13" y="351.4" width="114" height="8.44" rx="1.45" style="fill:#407BFF"></rect><rect x="298.13" y="351.4" width="114" height="8.44" rx="1.45" style="fill:#fff;opacity:0.30000000000000004"></rect><path d="M355.52,253c-6.27,1-12.35,20.27-15,21.87s-.36-18.08-.36-18.08l-5-.68s-5.94,29.72,2.73,29.51c6.6-.17,14.46-11.21,16.39-16.82Z" style="fill:#ebb376"></path><path d="M355.52,253c-6.27,1-12.35,20.27-15,21.87s-.36-18.08-.36-18.08l-5-.68s-5.94,29.72,2.73,29.51c6.6-.17,14.46-11.21,16.39-16.82Z" style="opacity:0.1;isolation:isolate"></path><polygon points="313.75 408.31 319.43 407.74 319.57 399.73 319.68 392.38 312.83 391.96 313.31 400.62 313.75 408.31" style="fill:#ebb376"></polygon><path d="M321,407.7c.07-.63-7.66-1.21-7.66-1.21s-5.38,4.14-10.11,4.58-2.56,3.54,2.56,4.26l12.66,1.76C322,417.6,320.2,414.18,321,407.7Z" style="fill:#2e353a"></path><polygon points="313.33 400.79 319.58 399.88 319.69 392.46 312.83 392 313.33 400.79" style="opacity:0.2;isolation:isolate"></polygon><path d="M302.71,331.32c1.5-8.53,8.09-17.2,53-24.54l20.92,31.43s-25.58-1.44-53.45-1.44c0,0-1.07,34.21-2.69,59.69l-8.25.16S301.2,339.84,302.71,331.32Z" style="fill:#2e353a"></path><path d="M302.71,331.32c1.5-8.53,8.09-17.2,53-24.54l20.92,31.43s-25.58-1.44-53.45-1.44c0,0-1.07,34.21-2.69,59.69l-8.25.16S301.2,339.84,302.71,331.32Z" style="opacity:0.30000000000000004;isolation:isolate"></path><polygon points="344.86 409.13 350.39 407.71 349.33 399.77 348.34 392.49 341.5 393.11 343.27 401.59 344.86 409.13" style="fill:#ebb376"></polygon><path d="M351.89,407.44c0-.63-7.76,0-7.76,0s-4.7,4.9-9.31,6-2,3.89,3.18,3.83l12.78-.16C354.45,417.07,352.12,414,351.89,407.44Z" style="fill:#2e353a"></path><polygon points="343.32 401.76 349.37 399.92 348.36 392.57 341.51 393.14 343.32 401.76" style="opacity:0.2;isolation:isolate"></polygon><path d="M349.37,311.14s1.66-2.43,5.49-15l30.48,2s13.93,25.67,3.15,36.62c-2.39,2.43-7.07,3.52-11.86,3.49,0,0-6,0-33.16-1.23,0,0,4.06,34,6.28,59.43l-8.13,1.38S320.74,339.92,321,331.26,318.07,318.12,349.37,311.14Z" style="fill:#2e353a"></path><polygon points="350.94 393.94 339.77 395.21 341.92 399.59 350.97 398.43 350.94 393.94" style="fill:#407BFF"></polygon><polygon points="322.03 394.2 310.8 393.79 312.27 398.44 321.39 398.65 322.03 394.2" style="fill:#407BFF"></polygon><path d="M354.86,296.1l30.48,2s.22-8.17,1.27-15.71a53.28,53.28,0,0,1,1.57-7.76c.79-2.6,1.79-5.53,3-8.92.15-.42.32-.83.48-1.27.4-1.06.82-2.16,1.27-3.31l0-.05a4.5,4.5,0,0,0-3.27-6q-3.75-.81-7.57-1.36a115.41,115.41,0,0,0-13.79-1.22c-2.39,0-4.93.06-7.12.17-3.25.15-5.72.36-5.72.36s-1,.2-1.59,5.56c0,.27-.06.56-.08.88-.09,1.1-.15,2.5-.18,4.19C353.55,270.57,353.92,282.11,354.86,296.1Z" style="fill:#ebb376"></path><path d="M354.86,296.1l30.48,2s.42-15.44,2.84-23.47c.79-2.6,1.79-5.53,3-8.92a375,375,0,0,0-37.55-2.06C353.55,270.57,353.92,282.11,354.86,296.1Z" style="fill:#407BFF"></path><path d="M366.89,299.64a1.54,1.54,0,1,1-1.54-1.54A1.54,1.54,0,0,1,366.89,299.64Z" style="fill:#fff;opacity:0.6000000000000001;isolation:isolate"></path><polygon points="385.34 298.1 386.62 301.27 354.19 299.64 354.87 295.74 385.34 298.1" style="opacity:0.5;isolation:isolate"></polygon><path d="M368.21,296.92l-.37,3.56a.74.74,0,0,1-.78.65l-4.75-.38a.73.73,0,0,1-.67-.79l.34-3.51a.72.72,0,0,1,.77-.66l4.79.33A.72.72,0,0,1,368.21,296.92Z" style="fill:#fff"></path><polygon points="376.17 297.35 376.55 301.54 377.73 301.54 377.54 297.35 376.17 297.35" style="fill:#263238"></polygon><polygon points="359.08 296.07 358.61 300.45 357.52 300.45 357.9 295.89 359.08 296.07" style="fill:#263238"></polygon><path d="M354.68,249.05a.27.27,0,0,1-.24-.17.26.26,0,0,1,.16-.32c7.78-2.56,6.07-11.25,6-11.62a.25.25,0,0,1,.19-.3.25.25,0,0,1,.29.2c0,.09,1.88,9.5-6.32,12.2Z" style="fill:#263238"></path><path d="M378.34,215.72a25.34,25.34,0,0,0-13.66-3.21c-8.28.28-12.27,9-10.18,15.62s6.4,10.07,7.3,12.08-.08,8.29-2.09,10.95c0,0,22.47.42,26.94-3.4s0-8.72,0-16S384.86,216.28,378.34,215.72Z" style="fill:#263238"></path><path d="M370,249.9a17.3,17.3,0,0,1-.29,6.74l10.24-1.5c-1.9-1.24-2.51-8.61-2.85-11.62a36.14,36.14,0,0,1-.24-3.7c0-.79,0-1.28,0-1.28l-3.74,1.71L367,243A20.33,20.33,0,0,1,370,249.9Z" style="fill:#ebb376"></path><path d="M367,243a20.33,20.33,0,0,1,3,6.86,13.77,13.77,0,0,0,7.1-6.38,36.14,36.14,0,0,1-.24-3.7c-1.33.13-2.57.27-3.75.43Z" style="opacity:0.2;isolation:isolate"></path><path d="M367.83,218.23c-8.16.9-10.3,5.57-10,14,.42,10.59,3.58,17.79,13.53,14.41C384.91,242.1,381.38,216.72,367.83,218.23Z" style="fill:#ebb376"></path><path d="M363.09,231.23a17.12,17.12,0,0,1-2,3.64,2.25,2.25,0,0,0,2.26.69Z" style="fill:#d58745"></path><path d="M368,230c.06.67.47,1.19.92,1.15s.76-.62.7-1.29-.47-1.18-.92-1.14S368,229.33,368,230Z" style="fill:#263238"></path><path d="M368.9,228.73l-1.51-.44S368.23,229.45,368.9,228.73Z" style="fill:#263238"></path><path d="M359.64,230.6c.06.67.47,1.18.92,1.14s.76-.61.71-1.29-.47-1.18-.92-1.14S359.58,229.92,359.64,230.6Z" style="fill:#263238"></path><path d="M360.54,229.32l-1.51-.44S359.86,230,360.54,229.32Z" style="fill:#263238"></path><path d="M371.14,225.56a.35.35,0,0,1-.25-.1,4,4,0,0,0-3.34-.75.36.36,0,1,1-.17-.7,4.59,4.59,0,0,1,4,.93.35.35,0,0,1,0,.51A.34.34,0,0,1,371.14,225.56Z" style="fill:#263238"></path><path d="M358.32,226.07a.36.36,0,0,1-.23-.64,4.18,4.18,0,0,1,3.49-1.11.36.36,0,0,1,.27.44.37.37,0,0,1-.44.27,3.47,3.47,0,0,0-2.86,1A.4.4,0,0,1,358.32,226.07Z" style="fill:#263238"></path><path d="M378.27,231s-4.56-6.28-4.56-11.52c0,0-16.9-4.81-15.87,11.69,0,0-3.2-14.39,10.79-16.28s16.21,18.64,9.65,25.56C378.28,240.44,381.1,234.91,378.27,231Z" style="fill:#263238"></path><path d="M377.13,232.86a3.6,3.6,0,0,1,3.49-3.7c2.56,0,4.34,5.05-1.81,7C377.93,236.43,377.32,235.61,377.13,232.86Z" style="fill:#ebb376"></path><path d="M364.89,237.72A19.47,19.47,0,0,1,366.5,240c.15-.06.31-.11.46-.18,2.09-.84,2.78-1.92,2.91-2.86a2.91,2.91,0,0,0-.17-1.36,3.08,3.08,0,0,0-.35-.71,10.59,10.59,0,0,1-3.75,2.5C365.17,237.62,364.89,237.72,364.89,237.72Z" style="fill:#263238"></path><path d="M365.6,237.42l.49.67c2-.8,3.24-1.62,3.61-2.46a3.08,3.08,0,0,0-.35-.71A10.59,10.59,0,0,1,365.6,237.42Z" style="fill:#fff"></path><path d="M367,239.85c2.09-.84,2.78-1.92,2.91-2.86a7.16,7.16,0,0,0-2.13,1.39A2.76,2.76,0,0,0,367,239.85Z" style="fill:#de5753"></path><path d="M356.59,230.14h0a.24.24,0,0,1-.22-.28c1.5-12.22,17.24-10.66,17.4-10.64a.24.24,0,0,1,.22.27.25.25,0,0,1-.27.23c-.15,0-15.41-1.53-16.85,10.2A.26.26,0,0,1,356.59,230.14Z" style="fill:#263238"></path><path d="M354.75,222a.26.26,0,0,1-.25-.22c0-.08-1.15-8,7.68-10.22,8.46-2.09,14.13,2.62,16.27,4.39l.26.21a.25.25,0,0,1-.32.39l-.26-.22c-2.08-1.73-7.61-6.31-15.83-4.29-8.38,2.07-7.35,9.36-7.3,9.67a.25.25,0,0,1-.21.28Z" style="fill:#263238"></path><path d="M388.16,248.85a.24.24,0,0,1-.23-.15.25.25,0,0,1,.13-.33,3.92,3.92,0,0,0,2.29-2.34c.65-1.79.18-4.25-1.4-7.29A44,44,0,0,1,385,228.06a.25.25,0,1,1,.49-.09,43.21,43.21,0,0,0,3.89,10.53c1.64,3.18,2.12,5.77,1.42,7.7a4.44,4.44,0,0,1-2.57,2.63A.15.15,0,0,1,388.16,248.85Z" style="fill:#263238"></path><path d="M367.13,267.2a.16.16,0,0,1-.1,0,.25.25,0,0,1-.15-.18c0-.08-1.5-8.39,2.58-14.65a.25.25,0,0,1,.34-.08.26.26,0,0,1,.08.35c-3.49,5.35-2.79,12.25-2.56,13.92,9.94-6.4,13-13.3,13-13.37a.25.25,0,0,1,.32-.13.26.26,0,0,1,.14.33c0,.07-3.17,7.25-13.51,13.79A.2.2,0,0,1,367.13,267.2Z" style="fill:#263238"></path><path d="M367.12,266.85s-2.21,2.83-.68,3S367.12,266.85,367.12,266.85Z" style="fill:#263238"></path><path d="M336.83,244.8s-4.52-.08-4.68.72.14,7.41.74,8.34a14,14,0,0,0,2.25,2.27l-.43,11.74,2.69.95,2.45-10.75s2.77-2.71,2-6.14S336.83,244.8,336.83,244.8Z" style="fill:#ebb376"></path><path d="M336.83,244.8s-4.52-.08-4.68.72.14,7.41.74,8.34a14,14,0,0,0,2.25,2.27l-.43,11.74,2.69.95,2.45-10.75s2.77-2.71,2-6.14S336.83,244.8,336.83,244.8Z" style="opacity:0.1;isolation:isolate"></path><path d="M344.51,250.58a.68.68,0,0,1-.76.72l-7.69-.6a.89.89,0,0,1-.81-.84l-.54-15.32a.77.77,0,0,1,.76-.82l7.7.6a1,1,0,0,1,.8.94Z" style="fill:#263238"></path><path d="M343.12,235.1l.56,15.46c0,.44-.24.72-.67.68l-6.52-.5c-.44,0-1.22-.34-1.24-.78l-.54-15.52c0-.43.75-.72,1.19-.69l6.53.51A.78.78,0,0,1,343.12,235.1Z" style="fill:#fff;opacity:0.5"></path><path d="M352.33,262.22l-2.93-6.82s-.95-9.16-1.41-10.14-7.91-.61-8.71-.67-.66,9.08.12,10,3.82,1.74,3.82,1.74l4.67,9.07Z" style="fill:#ebb376"></path><path d="M392.94,256.42a5.82,5.82,0,0,0-8.43,1.2c-4.8,6.89-12.88,18.35-13.85,18.91-1.4.81-11.9-8.87-21.26-21.13l-5.72,2.15S358.48,288,369,288.12c7.87.1,19.67-15.88,25.1-23.91a5.82,5.82,0,0,0-1.15-7.79Z" style="fill:#ebb376"></path></g></svg>